/* XPM */
static char * collect_xpm[] = {
"48 48 493 2",
"  	c #95BB1F",
". 	c #8FB31E",
"+ 	c #9FC42C",
"@ 	c #87AA1C",
"# 	c #A4C92D",
"$ 	c #92B71E",
"% 	c #93B81F",
"& 	c #97BC23",
"* 	c #94B823",
"= 	c #99BE25",
"- 	c #9CC128",
"; 	c #91B51E",
"> 	c #91B61E",
", 	c #92B81E",
"' 	c #8EB21E",
") 	c #8FB41E",
"! 	c #93B81E",
"~ 	c #98BE23",
"{ 	c #99BE24",
"] 	c #96BC20",
"^ 	c #93B91F",
"/ 	c #92B61F",
"( 	c #94BA1F",
"_ 	c #9EC32B",
": 	c #9BC027",
"< 	c #90B41E",
"[ 	c #92B61E",
"} 	c #99BF25",
"| 	c #95BB20",
"1 	c #9DC229",
"2 	c #95BA1F",
"3 	c #90B51E",
"4 	c #92B71F",
"5 	c #98BD23",
"6 	c #98BD24",
"7 	c #9AC026",
"8 	c #96BC21",
"9 	c #97BC21",
"0 	c #9ABF26",
"a 	c #94B91F",
"b 	c #8AAD1D",
"c 	c #92B81F",
"d 	c #97BC29",
"e 	c #8FB02E",
"f 	c #9CB648",
"g 	c #ABBF5E",
"h 	c #B3AF45",
"i 	c #9DAF26",
"j 	c #97BD22",
"k 	c #95BA21",
"l 	c #9CC229",
"m 	c #A1C62C",
"n 	c #8EAF2D",
"o 	c #8D9655",
"p 	c #BEB888",
"q 	c #E0C19A",
"r 	c #F07869",
"s 	c #D78540",
"t 	c #C69737",
"u 	c #9CB424",
"v 	c #9CC129",
"w 	c #89AD1D",
"x 	c #98BD22",
"y 	c #9DC22A",
"z 	c #93B824",
"A 	c #859F3B",
"B 	c #A5A170",
"C 	c #D9C8A1",
"D 	c #EC9F89",
"E 	c #FC3750",
"F 	c #FC284C",
"G 	c #FA2E4E",
"H 	c #D28A3E",
"I 	c #BE9F37",
"J 	c #9FC02A",
"K 	c #95B920",
"L 	c #8EB11E",
"M 	c #8CAF1D",
"N 	c #9BC127",
"O 	c #98BE24",
"P 	c #90B328",
"Q 	c #80874B",
"R 	c #B7AE82",
"S 	c #DBCCA4",
"T 	c #ED8674",
"U 	c #FE1F48",
"V 	c #FB2C4E",
"W 	c #FB2D4E",
"X 	c #F2554E",
"Y 	c #D48742",
"Z 	c #BD9438",
"` 	c #91B21F",
" .	c #90B329",
"..	c #8F9059",
"+.	c #CABC94",
"@.	c #E3BA9B",
"#.	c #F4585C",
"$.	c #FB2E4F",
"%.	c #F93552",
"&.	c #F93A54",
"*.	c #EF5650",
"=.	c #DD7548",
"-.	c #DA7A49",
";.	c #B1A933",
">.	c #96BA20",
",.	c #8EB027",
"'.	c #809740",
").	c #999C69",
"!.	c #D7C9A0",
"~.	c #EBA68C",
"{.	c #FD2B4C",
"].	c #FA3351",
"^.	c #F74357",
"/.	c #E66D52",
"(.	c #D9804B",
"_.	c #B1A734",
":.	c #A1B42B",
"<.	c #8FB120",
"[.	c #97BD23",
"}.	c #8DAE2B",
"|.	c #798A49",
"1.	c #9FAC73",
"2.	c #D3C9A1",
"3.	c #E48D76",
"4.	c #FA2C4E",
"5.	c #FA304F",
"6.	c #F74157",
"7.	c #F6475A",
"8.	c #F5495A",
"9.	c #EF5B57",
"0.	c #EB675B",
"a.	c #9FAA2C",
"b.	c #90B21F",
"c.	c #8CB01D",
"d.	c #86A62A",
"e.	c #81894D",
"f.	c #B9AB7F",
"g.	c #D6C59F",
"h.	c #E58370",
"i.	c #F3284A",
"j.	c #932735",
"k.	c #A82739",
"l.	c #F02F4C",
"m.	c #F6495B",
"n.	c #F45360",
"o.	c #EA695A",
"p.	c #D88150",
"q.	c #A5AC32",
"r.	c #A7B032",
"s.	c #9AAF28",
"t.	c #8DB01D",
"u.	c #89A92A",
"v.	c #888D55",
"w.	c #CBB992",
"x.	c #E3B89A",
"y.	c #F45B60",
"z.	c #F6284B",
"A.	c #B82D40",
"B.	c #E62B49",
"C.	c #F8304F",
"D.	c #F15D60",
"E.	c #E8715F",
"F.	c #E86F5F",
"G.	c #CC8F4F",
"H.	c #B0AA3C",
"I.	c #99B327",
"J.	c #8AAB2A",
"K.	c #899058",
"L.	c #D1C19A",
"M.	c #E7B497",
"N.	c #F84558",
"O.	c #F62F4E",
"P.	c #EB3850",
"Q.	c #F83A54",
"R.	c #F35662",
"S.	c #F25E65",
"T.	c #F16467",
"U.	c #EF6B69",
"V.	c #BB9448",
"W.	c #A9AB38",
"X.	c #99B925",
"Y.	c #94B921",
"Z.	c #86A335",
"`.	c #8E945F",
" +	c #DDD1A9",
".+	c #EAB296",
"++	c #FB3150",
"@+	c #F52C4C",
"#+	c #C52A41",
"$+	c #A32F3E",
"%+	c #F63A53",
"&+	c #F6485A",
"*+	c #F54F5E",
"=+	c #F45260",
"-+	c #F0696A",
";+	c #EE6C69",
">+	c #E8806B",
",+	c #C6C478",
"'+	c #BFD178",
")+	c #A2C43A",
"!+	c #93B823",
"~+	c #7D9143",
"{+	c #8E9360",
"]+	c #DDD2A9",
"^+	c #E8B498",
"/+	c #F93E54",
"(+	c #EC2C4A",
"_+	c #9D2B3A",
":+	c #C63245",
"<+	c #F73A53",
"[+	c #E53C51",
"}+	c #E94C5A",
"|+	c #F4515F",
"1+	c #F04859",
"2+	c #BC3A47",
"3+	c #D54754",
"4+	c #F15661",
"5+	c #ECA68D",
"6+	c #F2E6B8",
"7+	c #EBEAB5",
"8+	c #A5C255",
"9+	c #94BA21",
"0+	c #88A438",
"a+	c #8B915B",
"b+	c #D5C79F",
"c+	c #E6B79A",
"d+	c #F6515C",
"e+	c #F52C4D",
"f+	c #E2314B",
"g+	c #C13345",
"h+	c #B0414A",
"i+	c #E8505C",
"j+	c #EA4758",
"k+	c #742C34",
"l+	c #AD3A46",
"m+	c #EE5560",
"n+	c #F06D6C",
"o+	c #F1D3AA",
"p+	c #F5EEBD",
"q+	c #D3CB9D",
"r+	c #90A757",
"s+	c #8BAA33",
"t+	c #8DAF2B",
"u+	c #898E56",
"v+	c #CEBB95",
"w+	c #DBC39F",
"x+	c #E97B6C",
"y+	c #C53346",
"z+	c #C13A49",
"A+	c #EE4558",
"B+	c #F34759",
"C+	c #D94956",
"D+	c #E04C58",
"E+	c #EFBB9C",
"F+	c #F7EABA",
"G+	c #E4DDAD",
"H+	c #9FAB68",
"I+	c #809650",
"J+	c #7F973F",
"K+	c #8CAE2B",
"L+	c #838A4F",
"M+	c #BEAD83",
"N+	c #DBD1A9",
"O+	c #EA9E84",
"P+	c #FE2449",
"Q+	c #EC3E53",
"R+	c #F06E6C",
"S+	c #EAAA8F",
"T+	c #F3E8B9",
"U+	c #E9E6B4",
"V+	c #B0BD7E",
"W+	c #85A851",
"X+	c #7D954D",
"Y+	c #7F963F",
"Z+	c #8EB02B",
"`+	c #7B884A",
" @	c #A4A474",
".@	c #DAD5AC",
"+@	c #E7B698",
"@@	c #F9515B",
"#@	c #F16A6B",
"$@	c #ECA58D",
"%@	c #F0E0B3",
"&@	c #F3ECBB",
"*@	c #C4BB8B",
"=@	c #8CA258",
"-@	c #84A751",
";@	c #7C914C",
">@	c #81993F",
",@	c #98B933",
"'@	c #788748",
")@	c #92915F",
"!@	c #CFC299",
"~@	c #E0D6AE",
"{@	c #F1927E",
"]@	c #FE2048",
"^@	c #F16267",
"/@	c #E9A48B",
"(@	c #ECE2B5",
"_@	c #F5EFBF",
":@	c #D5C298",
"<@	c #93945F",
"[@	c #7E9A4E",
"}@	c #84A851",
"|@	c #7D964D",
"1@	c #9DC22B",
"2@	c #8EAF2E",
"3@	c #7C8C4D",
"4@	c #AFB281",
"5@	c #DCD5AE",
"6@	c #DAC5A0",
"7@	c #EA8271",
"8@	c #F94153",
"9@	c #F26367",
"0@	c #F18579",
"a@	c #F1B497",
"b@	c #F2E5B8",
"c@	c #EFE8B8",
"d@	c #D2C799",
"e@	c #969664",
"f@	c #7B8A4D",
"g@	c #809D4E",
"h@	c #84A750",
"i@	c #7D9249",
"j@	c #89A53C",
"k@	c #92B626",
"l@	c #7E9442",
"m@	c #969662",
"n@	c #C8BB93",
"o@	c #D8C59E",
"p@	c #EB907C",
"q@	c #F74D5B",
"r@	c #F45962",
"s@	c #EE877B",
"t@	c #EEAA90",
"u@	c #EDD8AE",
"v@	c #F4EBBC",
"w@	c #E8E7B4",
"x@	c #CCCA95",
"y@	c #9DA367",
"z@	c #7A894C",
"A@	c #7A8E4B",
"B@	c #83A550",
"C@	c #83A650",
"D@	c #829B41",
"E@	c #9DC12E",
"F@	c #99BE26",
"G@	c #8FB229",
"H@	c #7E9342",
"I@	c #969362",
"J@	c #C9BD95",
"K@	c #DDD7B0",
"L@	c #E2D4AD",
"M@	c #ECA78F",
"N@	c #F18577",
"O@	c #ED7369",
"P@	c #ED6C66",
"Q@	c #F64F5C",
"R@	c #F16162",
"S@	c #EA766B",
"T@	c #ED8476",
"U@	c #F19281",
"V@	c #EEA88F",
"W@	c #E5DAAF",
"X@	c #F0EBBD",
"Y@	c #F0EABB",
"Z@	c #E0DBAC",
"`@	c #B2C284",
" #	c #85A951",
".#	c #7E974E",
"+#	c #77854A",
"@#	c #7F9B4E",
"##	c #82A04D",
"$#	c #87A439",
"%#	c #8FB02D",
"&#	c #819643",
"*#	c #979464",
"=#	c #C0B38A",
"-#	c #DCD2A9",
";#	c #E7E1B7",
">#	c #E3D7AE",
",#	c #DBCBA3",
"'#	c #DEC39F",
")#	c #ECB196",
"!#	c #E5BE9C",
"~#	c #DDCDA4",
"{#	c #E4D7AC",
"]#	c #EAE2B7",
"^#	c #EDE7BA",
"/#	c #E7E4B8",
"(#	c #DCD5A7",
"_#	c #C0BE8F",
":#	c #A1A46B",
"<#	c #88AB55",
"[#	c #83A350",
"}#	c #78884A",
"|#	c #82A24F",
"1#	c #84A650",
"2#	c #7F9449",
"3#	c #90B427",
"4#	c #90B22D",
"5#	c #809642",
"6#	c #8A8850",
"7#	c #AFA97A",
"8#	c #D4C89E",
"9#	c #E0D8AE",
"0#	c #E2DFB4",
"a#	c #E5E3B7",
"b#	c #E6E3B8",
"c#	c #E9E7B9",
"d#	c #EAE7BA",
"e#	c #E6E0B4",
"f#	c #DCD2A6",
"g#	c #C5CB95",
"h#	c #B5BD8A",
"i#	c #9F9E6C",
"j#	c #7C894D",
"k#	c #7B924C",
"l#	c #7E994E",
"m#	c #77864A",
"n#	c #7C924D",
"o#	c #86AA4E",
"p#	c #8BAA38",
"q#	c #91B522",
"r#	c #86A433",
"s#	c #849848",
"t#	c #9C9B65",
"u#	c #A8A977",
"v#	c #A9AF7F",
"w#	c #B4B984",
"x#	c #BCB986",
"y#	c #B3C385",
"z#	c #B0BA83",
"A#	c #A9A97B",
"B#	c #A09F6B",
"C#	c #899F56",
"D#	c #7F9A4E",
"E#	c #78894A",
"F#	c #82A150",
"G#	c #7B8E4C",
"H#	c #768549",
"I#	c #819E4E",
"J#	c #88AC4E",
"K#	c #90B53A",
"L#	c #8FB22A",
"M#	c #8FB02F",
"N#	c #7B8E47",
"O#	c #77884A",
"P#	c #80934F",
"Q#	c #879A51",
"R#	c #809A4E",
"S#	c #7A8C4B",
"T#	c #768449",
"U#	c #7C934C",
"V#	c #7D914D",
"W#	c #7A8F4B",
"X#	c #83A450",
"Y#	c #7C944D",
"Z#	c #778549",
"`#	c #778649",
" $	c #92B33C",
".$	c #98BD33",
"+$	c #95BA22",
"@$	c #97B934",
"#$	c #93B433",
"$$	c #8CAD37",
"%$	c #83A149",
"&$	c #819A49",
"*$	c #7C8E46",
"=$	c #7B8D45",
"-$	c #809A48",
";$	c #829E49",
">$	c #7C8F46",
",$	c #7C8E45",
"'$	c #809948",
")$	c #85A54C",
"!$	c #7E9447",
"~$	c #87A23C",
"{$	c #90B22F",
"]$	c #9ABE2A",
"^$	c #9ABF25",
"/$	c #94BA22",
"($	c #92B72A",
"_$	c #9ABD32",
":$	c #91B429",
"<$	c #92B62A",
"[$	c #8EB028",
"}$	c #8DB029",
"|$	c #91B529",
"1$	c #9DC32A",
"2$	c #96BB20",
"3$	c #9EC329",
"4$	c #9CC12A",
"  . .       . .     + +       . . .       . .     . @     .             + +                   . ",
"        . . . .       + +                         . .     .   . .         + +     +     . .     ",
"      . . .   . .       +     +                         . .   . .       .   +   + +   . . . .   ",
". . . . .     . .     .         . .     .   + +       .       . .       .           . .       . ",
". . . .           .   . . .   . . @     .   + +                 . .                 . .   +   . ",
".       + +       .     . .   . . .     .     +   .   +             .       . . . . . .   + +   ",
"  + + + +       .             . .               . .         + + +   . .   . . . . . . .   + + + ",
"  + # +       $ . %   & *   = -     * ;     > ,   ' )   !     ~ { - ]     ^ > ^ / . . .     + # ",
"  + +         ^     . . . (   _ :   ]             < % ( [ < ;     } + | 1   > . 2   . .       + ",
"          . . > $ 3 . ^ 3 3   4 5   6 $   ^   7 8   ^ 4 ^ < ;   2 4 } 9 0 > ; 4 4 ( . .         ",
"  . .     . @ . . . (     a % . . ( . b   $ 2 + 5           . ^           . c _ % (   . . . . . ",
"  . . .     . 3 { { + d e f g h i ( . 3   %   j k < {   9 { 5 > % ( . . . . c + l ]     . .     ",
". . . .     . ^ + m ~ n o p q r s t u 2 v       ( . ^   ] _ 1 ( a 4 w . . . c j m x + +       . ",
"        .     ~ y } z A B C D E F G H I J K (   ( L M   4   - N l > < $   . c   O 8           . ",
"  . .   .   + ~ > ^ P Q R S T U F V W X Y Z `   3 ' ' >     8 8 > . (     4 3 > > ) .           ",
". . @ . .     ~ . .  ...+.@.#.U F V $.%.&.*.=.-.;.>./ . . (                 4 .       . . .     ",
". @ @ .       ! $ ,.'.).!.~.{.U F V W ].&.&.&.^./.(._.:.<.' c   $   _ ~   : [.  % . . . . .     ",
". . . .         < }.|.1.2.3.U U F 4.4.5.&.&.&.6.7.8.9.0.a.b.        8 - > ;       < . . .       ",
"  . . .     . ; c.d.e.f.g.h.U U i.j.k.l.&.&.&.6.7.7.m.n.o.p.q.r.s.      a % . .                 ",
"    . .     . . t.u.v.w.x.y.U U z.A.B.C.&.&.&.6.7.7.m.n.n.D.E.F.G.H.I.  ; . . %         +     . ",
"            .   < J.K.L.M.N.U U F V V O.P.Q.&.6.7.7.m.n.n.R.S.S.T.U.V.W.X.  ]         + +     . ",
"      + +     ~ Y.Z.`. +.+++U U F V @+#+$+%+&.6.7.7.&+*+=+R.S.S.T.-+;+>+,+'+)+  % ( + + +       ",
".     + + +   ~ !+~+{+]+^+/+U U F V (+_+:+<+&.[+}+|+1+2+3+4+S.S.T.-+-+5+6+7+8+      + +         ",
".       + +   * 9+0+a+b+c+d+U U F V e+f+&.&.&.g+h+i+j+k+l+m+S.S.T.-+n+o+p+q+r+s+% 2 +       . . ",
"  . .         ( 3 t+u+v+w+x+U U F V V 5.&.&.&.y+z+A+B+C+D+4+S.S.T.n+E+F+G+H+I+J+>         . .   ",
"  . .     .   ^ < K+L+M+N+O+P+U F V V 5.&.&.&.Q+A+7.m.n.n.R.S.S.R+S+T+U+V+W+X+Y+4     . . . .   ",
"    .         ^   Z+`+ @.@+@@@U F V V 5.&.&.&.6.7.7.m.n.n.R.S.#@$@%@&@*@=@-@;@>@< a     .       ",
"        + +     8 ,@'@)@!@~@{@]@F V V 5.&.&.&.6.7.7.m.n.n.R.^@/@(@_@:@<@[@}@|@>@. .         . @ ",
"    + + + +   ~ + 1@2@3@4@5@6@7@8@V V 5.&.&.&.6.7.7.m.n.9@0@a@b@c@d@e@f@g@h@i@j@5 <         . . ",
"  + # +       1 _ ] k@l@m@n@5@o@p@q@5.5.&.&.&.6.7.&+r@s@t@u@v@w@x@y@z@A@B@C@D@E@: <     +       ",
"+ + +       . F@  (   G@H@I@J@K@L@M@N@O@P@Q@R@S@T@U@V@W@X@Y@Z@`@ #.#+#@#h@##$#l (         + +   ",
"# +           3 > (   ^ %#&#*#=#-#;#>#,#'#)#!#~#{#]#^#/#(#_#:#<#[#A@}#|#1#2#3#  % .       + +   ",
"+             [ <   2 . . 4#5#6#7#8#9#0#a#b#c#d#e#f#g#h#i#j#k# #l#m#n#B@o#p#q#(   < . .   +     ",
"    .     .     . ; . c.>   t+r#s#t#u#v#w#x#y#z#A#B#C#D#E#E#@#F#G#H#I#J#K#  ^ . ^ < . .       . ",
". .             ( $ . ;   ( % ( L#M#N#O#P#Q#R#S#T#U#l#V#m#W#X#Y#Z#`# $.$+$  [ . >   . .       . ",
". .       . . ^ 2 %       5   O 3 ( @$#$$$%$&$*$=$-$;$>$,$'$)$!$~${$]$$ 3       > (     .       ",
"  . .   . . . ^   } |   : y ^$+ c 3 + + /$($_$:$:$<$<$:$[$}$L#|$z   > . ^                 .     ",
"  . . . . @ . ] + 0     - + +   $ . j 1$] _ ] . a _ 7 9 ]   | 2$2 % 3 ' % 8 _ j % (     . . .   ",
"      . . .   3$+ 0   a ( 7 - [ . .     $ j   . > ] 1 + :   5 l     $ t..   5 + {       . . .   ",
"    .         - _ 4             c .         < . .     + : y 1   2 . . >   . % + : <         . . ",
"              =     . ^   . 3   > > 8 y   ; .   3 4 a   ( 2 = 3 . > > % ( ( > %                 ",
"      +       _ y   4$y   . < y 4$y 2$j   4$(   (   (   2 <   . .     (     . . <               ",
"  + +         + + + +     . .   + +   + +   . .   + +                   .   . . .     + +     . ",
"+ + +           + + +   . . .           +   . .     + + + +       +           @ . .     + +     ",
"# + +       .     +   . . . .       .       . . .     + + +       + +       . . . .       + +   ",
"+ +   .                   . .             . . . .       + +   + +       . . . .     . .   + +   ",
"+       .       . . .     . .     +     . .     . .             +   . . . . .         .         ",
"        . .     . .     . .     + +   . . .     .     .     .     . . .       . .     . . .     "};
