/* XPM */
static char * exit_xpm[] = {
"48 48 472 2",
"  	c #95BB1F",
". 	c #8FB31E",
"+ 	c #9FC42C",
"@ 	c #87AA1C",
"# 	c #99BF25",
"$ 	c #90B51E",
"% 	c #92B61E",
"& 	c #94B91F",
"* 	c #9ABF27",
"= 	c #9DC22A",
"- 	c #94B822",
"; 	c #91B51E",
"> 	c #8AAE1D",
", 	c #97BD22",
"' 	c #93B81F",
") 	c #93B91F",
"! 	c #9CC029",
"~ 	c #9BC127",
"{ 	c #92B71E",
"] 	c #9CC229",
"^ 	c #9AC026",
"/ 	c #92B71F",
"( 	c #A4C92D",
"_ 	c #9BC027",
": 	c #98BE23",
"< 	c #96BC21",
"[ 	c #94BA1F",
"} 	c #99BE24",
"| 	c #92B81F",
"1 	c #90B41E",
"2 	c #8EB21E",
"3 	c #99BE25",
"4 	c #85A61F",
"5 	c #53642B",
"6 	c #778165",
"7 	c #6C7957",
"8 	c #5D6C3E",
"9 	c #66734D",
"0 	c #5E6D3F",
"a 	c #546432",
"b 	c #586839",
"c 	c #65724B",
"d 	c #616E46",
"e 	c #566635",
"f 	c #667151",
"g 	c #6E7957",
"h 	c #6C7656",
"i 	c #6D7956",
"j 	c #717C58",
"k 	c #6F7B57",
"l 	c #6D7855",
"m 	c #616F44",
"n 	c #5D6D3E",
"o 	c #6B7656",
"p 	c #6C7756",
"q 	c #65724A",
"r 	c #596A36",
"s 	c #5B6B39",
"t 	c #546529",
"u 	c #627822",
"v 	c #8AAA29",
"w 	c #2F2C2E",
"x 	c #6C696F",
"y 	c #69666D",
"z 	c #4F4D51",
"A 	c #535055",
"B 	c #3D3C3F",
"C 	c #2F2E2F",
"D 	c #363537",
"E 	c #4D4B4F",
"F 	c #545156",
"G 	c #4B494D",
"H 	c #5B575D",
"I 	c #5E5A60",
"J 	c #5D595F",
"K 	c #504D52",
"L 	c #575359",
"M 	c #49474A",
"N 	c #414040",
"O 	c #2E2B2C",
"P 	c #4E5F23",
"Q 	c #9CC129",
"R 	c #8DAD29",
"S 	c #747178",
"T 	c #555256",
"U 	c #3B3A3C",
"V 	c #2B2829",
"W 	c #333233",
"X 	c #4C4A4E",
"Y 	c #59555A",
"Z 	c #454344",
"` 	c #A0C52A",
" .	c #9ABF26",
"..	c #86A624",
"+.	c #6C6970",
"@.	c #6E6C73",
"#.	c #565358",
"$.	c #434243",
"%.	c #2E2D2D",
"&.	c #3B393A",
"*.	c #514F53",
"=.	c #59565B",
"-.	c #555157",
";.	c #5C595E",
">.	c #58555A",
",.	c #575459",
"'.	c #5E5960",
").	c #5A575D",
"!.	c #504E52",
"~.	c #434242",
"{.	c #7D9D1F",
"].	c #69656C",
"^.	c #5F5D62",
"/.	c #454447",
"(.	c #535054",
"_.	c #454445",
":.	c #363536",
"<.	c #3E3E3F",
"[.	c #504E51",
"}.	c #3F3E41",
"|.	c #575358",
"1.	c #5A575C",
"2.	c #5A565C",
"3.	c #464448",
"4.	c #5B575C",
"5.	c #5C585D",
"6.	c #3F3E40",
"7.	c #3F3F3F",
"8.	c #91B61E",
"9.	c #7C9B1F",
"0.	c #2D2A2B",
"a.	c #535155",
"b.	c #424243",
"c.	c #464646",
"d.	c #434343",
"e.	c #414141",
"f.	c #454546",
"g.	c #444445",
"h.	c #424242",
"i.	c #474647",
"j.	c #484748",
"k.	c #474748",
"l.	c #444444",
"m.	c #484849",
"n.	c #464546",
"o.	c #403F40",
"p.	c #2E2C2C",
"q.	c #516323",
"r.	c #7E9D20",
"s.	c #2A2628",
"t.	c #363335",
"u.	c #383638",
"v.	c #333132",
"w.	c #323131",
"x.	c #333031",
"y.	c #333131",
"z.	c #333232",
"A.	c #323031",
"B.	c #313030",
"C.	c #556627",
"D.	c #7F9F21",
"E.	c #292627",
"F.	c #323132",
"G.	c #2B292B",
"H.	c #282626",
"I.	c #667E23",
"J.	c #708B23",
"K.	c #282526",
"L.	c #302E2E",
"M.	c #2C2A2C",
"N.	c #566A24",
"O.	c #434F25",
"P.	c #302D2E",
"Q.	c #333333",
"R.	c #2C2B2C",
"S.	c #718C23",
"T.	c #556824",
"U.	c #718D23",
"V.	c #2A2925",
"W.	c #2D2B2B",
"X.	c #2E2C2E",
"Y.	c #2A2728",
"Z.	c #526325",
"`.	c #91B61F",
" +	c #77951F",
".+	c #434043",
"++	c #404042",
"@+	c #2E2D2F",
"#+	c #8CAD29",
"$+	c #292626",
"%+	c #3D3A3C",
"&+	c #424244",
"*+	c #2F2F30",
"=+	c #4F5F27",
"-+	c #8DB120",
";+	c #546724",
">+	c #3B393B",
",+	c #444446",
"'+	c #313132",
")+	c #292728",
"!+	c #779424",
"~+	c #303031",
"{+	c #6E8923",
"]+	c #2B2C23",
"^+	c #363334",
"/+	c #444345",
"(+	c #353536",
"_+	c #2A2729",
":+	c #506024",
"<+	c #76941E",
"[+	c #2C292A",
"}+	c #4F4B4F",
"|+	c #49474B",
"1+	c #8EAF2B",
"2+	c #9EC22C",
"3+	c #474347",
"4+	c #4D4A4F",
"5+	c #302F31",
"6+	c #576A26",
"7+	c #444044",
"8+	c #514D53",
"9+	c #333234",
"0+	c #8EAE2D",
"a+	c #464246",
"b+	c #6A8322",
"c+	c #2A2B23",
"d+	c #3C383B",
"e+	c #504D51",
"f+	c #38373A",
"g+	c #4F5F24",
"h+	c #8CAD28",
"i+	c #9BC029",
"j+	c #586B27",
"k+	c #6B8522",
"l+	c #83A320",
"m+	c #596C27",
"n+	c #576926",
"o+	c #89AA29",
"p+	c #97BD23",
"q+	c #95BA22",
"r+	c #80A120",
"s+	c #80A020",
"t+	c #88AB1D",
"u+	c #596C28",
"v+	c #85A624",
"w+	c #556727",
"x+	c #9EC32B",
"y+	c #93B722",
"z+	c #82A220",
"A+	c #86A91C",
"B+	c #514E53",
"C+	c #566827",
"D+	c #728D22",
"E+	c #413F41",
"F+	c #474649",
"G+	c #292628",
"H+	c #647C23",
"I+	c #4C5C25",
"J+	c #3F3C3F",
"K+	c #4A484C",
"L+	c #333134",
"M+	c #84A521",
"N+	c #413E40",
"O+	c #627924",
"P+	c #292923",
"Q+	c #3C393B",
"R+	c #7F9F20",
"S+	c #2C282A",
"T+	c #4A474A",
"U+	c #2F2D2E",
"V+	c #2F2B2D",
"W+	c #3C3A3B",
"X+	c #424143",
"Y+	c #2A2829",
"Z+	c #2E2C2D",
"`+	c #353234",
" @	c #2E2B2D",
".@	c #393639",
"+@	c #4B494C",
"@@	c #373638",
"#@	c #7C9B20",
"$@	c #403E3F",
"%@	c #414041",
"&@	c #524F53",
"*@	c #3A373A",
"=@	c #444144",
"-@	c #4B484C",
";@	c #393838",
">@	c #312F2F",
",@	c #423F42",
"'@	c #4E4B50",
")@	c #323233",
"!@	c #2C2A2B",
"~@	c #3C3C3C",
"{@	c #4F4C4F",
"]@	c #3F3B3E",
"^@	c #343233",
"/@	c #424142",
"(@	c #353436",
"_@	c #8FB41E",
":@	c #474648",
"<@	c #312E2F",
"[@	c #484848",
"}@	c #3B3A3B",
"|@	c #2D2B2C",
"1@	c #343333",
"2@	c #3E3D3D",
"3@	c #474747",
"4@	c #373536",
"5@	c #3A3739",
"6@	c #373639",
"7@	c #84A423",
"8@	c #322F30",
"9@	c #3D3B3D",
"0@	c #434244",
"a@	c #454446",
"b@	c #323133",
"c@	c #3C3A3C",
"d@	c #302E2F",
"e@	c #3C393C",
"f@	c #8CAF1D",
"g@	c #8CAC2A",
"h@	c #454345",
"i@	c #607623",
"j@	c #647D21",
"k@	c #3F3D3F",
"l@	c #424E25",
"m@	c #6B8422",
"n@	c #3E3C3E",
"o@	c #596B28",
"p@	c #718C25",
"q@	c #292824",
"r@	c #373436",
"s@	c #474548",
"t@	c #93B81E",
"u@	c #8BAB2A",
"v@	c #414142",
"w@	c #403E40",
"x@	c #464547",
"y@	c #4E5E26",
"z@	c #8DB020",
"A@	c #3E3B3D",
"B@	c #759224",
"C@	c #708B24",
"D@	c #96BC20",
"E@	c #2B2C24",
"F@	c #363435",
"G@	c #A1C62A",
"H@	c #464548",
"I@	c #3A3839",
"J@	c #3F3F40",
"K@	c #576A27",
"L@	c #383737",
"M@	c #313032",
"N@	c #809F22",
"O@	c #393738",
"P@	c #88A923",
"Q@	c #48474A",
"R@	c #403D40",
"S@	c #2B2B24",
"T@	c #2B292A",
"U@	c #484648",
"V@	c #414042",
"W@	c #455227",
"X@	c #88A924",
"Y@	c #434344",
"Z@	c #657D25",
"`@	c #2B2B23",
" #	c #4A484B",
".#	c #424042",
"+#	c #404041",
"@#	c #546427",
"##	c #373636",
"$#	c #3D3C3D",
"%#	c #455125",
"&#	c #383F26",
"*#	c #363535",
"=#	c #3E3E3E",
"-#	c #313031",
";#	c #576A24",
">#	c #3D3D3D",
",#	c #445025",
"'#	c #576B24",
")#	c #282624",
"!#	c #516225",
"~#	c #7D9B20",
"{#	c #2B2929",
"]#	c #2F2F31",
"^#	c #2F2D2D",
"/#	c #2A2828",
"(#	c #353334",
"_#	c #3D3D3E",
":#	c #474547",
"<#	c #2B282A",
"[#	c #494649",
"}#	c #333032",
"|#	c #59585B",
"1#	c #525054",
"2#	c #444245",
"3#	c #39393A",
"4#	c #333235",
"5#	c #535255",
"6#	c #3A3A3B",
"7#	c #343335",
"8#	c #3E3C3F",
"9#	c #565558",
"0#	c #545356",
"a#	c #5C5B5F",
"b#	c #393638",
"c#	c #343133",
"d#	c #524F54",
"e#	c #6D6B71",
"f#	c #706E74",
"g#	c #555458",
"h#	c #373739",
"i#	c #6B696F",
"j#	c #716F75",
"k#	c #535256",
"l#	c #363638",
"m#	c #3D3C3E",
"n#	c #545255",
"o#	c #6D6B70",
"p#	c #716E75",
"q#	c #565559",
"r#	c #3A3A3C",
"s#	c #545256",
"t#	c #737077",
"u#	c #4D4A4E",
"v#	c #3F3E3F",
"w#	c #92B81E",
"x#	c #80A021",
"y#	c #3A3939",
"z#	c #2D2A2C",
"A#	c #3A393B",
"B#	c #4B4A4D",
"C#	c #4F4F51",
"D#	c #4D4D4E",
"E#	c #4F4E50",
"F#	c #4E4D4E",
"G#	c #4F4F50",
"H#	c #312F30",
"I#	c #82A221",
"J#	c #2A2627",
"K#	c #343436",
"L#	c #323234",
"M#	c #434443",
"N#	c #353434",
"O#	c #333335",
"P#	c #97BD21",
"Q#	c #8FB02A",
"R#	c #404A26",
"S#	c #323030",
"T#	c #2C292B",
"U#	c #698126",
"V#	c #9ABF25",
"W#	c #9FC42A",
"X#	c #6D8723",
"Y#	c #698222",
"Z#	c #718B26",
"`#	c #6F8924",
" $	c #6C8623",
".$	c #6B8523",
"+$	c #748E29",
"@$	c #6F8925",
"#$	c #98BD23",
"$$	c #9EC32A",
"%$	c #96BB22",
"&$	c #97BC21",
"*$	c #95BA1F",
"=$	c #9BC128",
"-$	c #9DC229",
";$	c #93B822",
"  . .       . .     + +       . . .       . .     . @     .             + +                   . ",
"        . . . .       + +                         . .     .   . .         + +     +     . .     ",
"      . . .   . .       +     +                         . .   . .       .   +   + +   . . . .   ",
". . . . .     . .     .         . .     .   + +       .       . .       .           . .       . ",
". . . .           .   . . .   . . @     .   + +                 . .                 . .   +   . ",
".       + # $ %   & $ % & * = & & $ $ % &   $ -   ; > , ' )         ! ~     & & & & & .   + +   ",
"  + + + +       { . . ;     + ]                   ; .   { ) . $       + ^   +   / .   &   + + + ",
"  + ( +   ) ) / . $   . /   & ^   _ ) &   &   : <     ' ; [ . $     . , } ^ ] | 1 ; ; |     + ( ",
"  + +     $ . . ; [   / / [ . { ) ' . 2   $   + ^     '     / 1 )   /         . { 3   .       + ",
"          . & 4 5 6 7 8 9 0 a b c d e f g h i j k i i l m n i o p i g q r s t u { ] = '         ",
"  . .     & + v w x y z A B C D E F G H I I I I I I I J A K I I I I I L M N O P { Q + ! . . . . ",
"  . . .     + R w x S I T U V W X J I I I I I I I I I J I I J J I I J I Y Z O P {   Q ` . .     ",
". . . .      ...w +.@.L #.$.%.&.*.=.-.;.I I I I I I I I >.,.'.I I I I ).!.~.O P {     _       . ",
"        .   $ {.w ].^./.(._.:.<.[.E }.|.H 1.1.1.1.1.1.2.G 3.4.4.1.1.5.!.6.7.O P 1 $ $ 8.      . ",
"  . .   .   . 9.0.(.a.b.c.d.e.b.f.g.h.i.j.j.j.j.j.j.j.k.l.d.j.j.j.j.m.n.h.o.p.q./ .             ",
". . @ . . % ; r.s.t.u.v.w.x.y.v.w.w.z.A.A.A.x.w.w.w.A.A.y.v.A.w.A.A.A.w.z.B.V C.#     . . .     ",
". @ @ .     { D.E.A.F.G.H.I.J.K.L.z.M.E.N.O.P.Q.R.E.S.K.L.z.M.E.T.U.V.W.W X.Y.Z.      `.. .     ",
". . . .   8..  +V .+++@+E.#+[ $+%+&+*+=+-+;+>+,+'+)+] !+%+&+~+)+{+{ ]+^+/+(+_+:+$ $   & .       ",
"  . . .   $ @ <+[+}+|+@+E.1+2+E.3+4+5+6+  ;+7+8+9+E.+ 0+a+4+5+Y.b+. c+d+e+f+Y.g+. .             ",
"    . .   % . 9.[+}+|+@+E.h+i+E.3+4+5+j+< ;+7+8+9+E.  0+a+4+5+Y.k+; c+d+e+f+Y.:+; &     +     . ",
"            { 9.[+}+|+@+E.l+`.E.3+4+5+m+^ n+7+8+9+E.  o+a+4+5+Y.{+  c+d+e+f+Y.Z.p+<   q++     . ",
"      + +     r+[+}+|+@+E.s+t+E.3+4+5+6+^ u+7+8+9+E.  v+a+4+5+Y.{+_ ]+d+e+f+Y.w+x+:   y++       ",
".     + + ,   z+[+}+|+@+E.s+A+$+3+4+5+6+  ;+7+B+9+E.. v+a+4+5+Y.{+  c+d+e+f+Y.C++ :   ,         ",
".       + y+  z+[+}+|+@+E.D+r.E.E+F+5+G+H+I+J+K+L+G+M+K.N+F+5+Y.O+M+P+Q+e+f+Y.w+#   & &     . . ",
"  . .     ' / R+S+T+3.@+V U+t.V+W+X+5+Y+0.V &./+F.Y+p.[+>+X+5+_+Z+`+ @.@+@@@Y.Z.  ' . '   . .   ",
"  . .     & . #@V $@6.@+U+%@&@*@=@-@5+0.;@>@,@'@)@!@~@v.7+G 5+!@~@{@]@^@/@(@_+:+; _@. & . . .   ",
"    .         9.[+-@:@@+<@h.[@t.3+4+5+O }@A.7+8+W |@7.1@a+4+5+0.2@3@4@5@X 6@Y.Z./ )     .       ",
"        + ,   7@[+}+K+@+[+8@w.!@9@0@5+V U+[+Q+a@b@V >@|@c@0@5+V d@w.[+e@K f+Y.Z.    . f@    . @ ",
"    + + + , ^ g@V h@&+@+E.i@j@E.k@a@5+G+T.l@9@F+b@G+m@E.n@a@5+Y.o@p@q@r@s@D _+Z., < / t@    . . ",
"  + ( +   ~ + u@V $.v@@+E.s+A+E.w@x@5+y@z@;+A@M b@G+. B@k@x@5+Y.C@D@E@F@a@:._+Z.< ~ ]   +       ",
"+ + +     G@+ z+[+-@H@@+E.s+2 K.I@J@5+K@  ;+L@v@M@)+. N@O@J@5+Y.b+. c+*@X 6@Y.Z.  ] +     + +   ",
"( +       ~   r+V w@J@@+E.P@_@E..+Q@5+6+^ u+R@X L+E.p+v+,@M 5+Y.{+; S@^@/@(@_+g+{ _   &   + +   ",
"+         ' / R+T@U@a@@+E.1+[ $+>+V@5+W@X@n+I@Y@'+G+ .Z@&.V@5+Y.{+' `@u. #@@Y.g+{     .   +     ",
"    .     . . z+V .#+#@+E.@#N.E.##$#5+G+%#&#*#=#-#)+;#$+4@>#5+Y.,#'#)#^+/+(@_+!#/ &   |       . ",
". .         . ~#T@h@0@@+!@v.^@{#:.$#]#)+^#/#(#<.5+Y.B.T@F@_#]#)+L.z.0.4@:#D Y.Z.  ;   &       . ",
". .       & $ r.<#[#/.@+}#+@|#1#2#3#4#k@5#1#0@6#7#8#9#(./+3#9+8#0#a#E+b# #@@Y.Z./ . .   .       ",
"  . .   . &   R+Y.$#_#@+c#d#e#f#g#h#U T i#j#k#l#m#n#o#p#q#h#r#s#i#t#u#A.v#7#_+Z.& { . '   .     ",
"  . . . . w#  x#Y.y#r#@+z#A#B#C#m.h.b.m.D#E#j.v@d.[@F#E#m.h.b.[@D#G#&.H#~@9+_+Z.    ) ) . . .   ",
"      . . &   I#J#M@K#@+G.L#+#l.l.l.l.l.d.d.M#l.l.d.d.d.d.l.l.l.d.d.N#R.O#M@_+Z.        . . .   ",
"    .     P#+ Q#R#V M.<#)+!@S#v.v.v.v.v.v.v.v.v.v.v.v.v.v.v.v.v.v.v.O )+T#G.G+U#x+V#  8.    . . ",
"          W#+ ] I#X#Y#X#Z#`#Y#Y#Y# $X# $.$X#X#Y#Y# $X#+$+$@$X#`#+$@$X# $Y#Y#Y#  #$x+ .          ",
"      +   $$+ %$'   )   &$D@) / . &   *$[   ; . . &    .+ #$Q =$: D@; $ . / ) ; ' ] +           ",
"  + +     =     { &   ) . .   ) . &   ]   ; .   { .           -$/ . . . {     & {     , +     . ",
"+ + +           q+y+, ) . ' & $ '   = ~ q+$ . & ' & , ;$, -   & $ y+    ' $   8.. .     + +     ",
"( + +       .     +   . . . .       .       . . .     + + +       + +       . . . .       + +   ",
"+ +   .                   . .             . . . .       + +   + +       . . . .     . .   + +   ",
"+       .       . . .     . .     +     . .     . .             +   . . . . .         .         ",
"        . .     . .     . .     + +   . . .     .     .     .     . . .       . .     . . .     "};
