/* XPM */
static char * player_xpm[] = {
"48 48 592 2",
"  	c #95BB1F",
". 	c #8FB31E",
"+ 	c #9FC42C",
"@ 	c #87AA1C",
"# 	c #93B81F",
"$ 	c #92B81F",
"% 	c #94BA1F",
"& 	c #99BF25",
"* 	c #93B720",
"= 	c #92B71E",
"- 	c #94B91F",
"; 	c #95BA1F",
"> 	c #91B61E",
", 	c #8DB11E",
"' 	c #9BC027",
") 	c #9BC127",
"! 	c #93B71F",
"~ 	c #92B61E",
"{ 	c #A4C92D",
"] 	c #92B71F",
"^ 	c #90B51E",
"/ 	c #9AC026",
"( 	c #9EC32A",
"_ 	c #8EB21E",
": 	c #9DC32A",
"< 	c #9ABF26",
"[ 	c #95BB20",
"} 	c #93B91F",
"| 	c #8DB01F",
"1 	c #81A223",
"2 	c #80A025",
"3 	c #7C9A24",
"4 	c #85A724",
"5 	c #92B820",
"6 	c #9BC128",
"7 	c #90B327",
"8 	c #82A326",
"9 	c #81A125",
"0 	c #81A225",
"a 	c #86A823",
"b 	c #93B820",
"c 	c #90B41E",
"d 	c #89AC22",
"e 	c #7C9B24",
"f 	c #7E9D25",
"g 	c #8BAE21",
"h 	c #9CC128",
"i 	c #97BD22",
"j 	c #9DC22A",
"k 	c #8EB11F",
"l 	c #84A024",
"m 	c #7F6D31",
"n 	c #7C4C35",
"o 	c #7B4A35",
"p 	c #7D6832",
"q 	c #86A125",
"r 	c #8FB31F",
"s 	c #89AB22",
"t 	c #6F8D27",
"u 	c #4E672B",
"v 	c #4C652B",
"w 	c #4D662B",
"x 	c #4C642B",
"y 	c #4E672C",
"z 	c #50682C",
"A 	c #5E7929",
"B 	c #84A624",
"C 	c #91B51F",
"D 	c #8BAE22",
"E 	c #6F8C28",
"F 	c #50682B",
"G 	c #739227",
"H 	c #8DB022",
"I 	c #8BAE1D",
"J 	c #8EB221",
"K 	c #6E6530",
"L 	c #C34643",
"M 	c #DC4848",
"N 	c #C84644",
"O 	c #716231",
"P 	c #87A821",
"Q 	c #637B29",
"R 	c #567828",
"S 	c #6E9A20",
"T 	c #6F9C1F",
"U 	c #648D23",
"V 	c #58702B",
"W 	c #95B82B",
"X 	c #66802A",
"Y 	c #587928",
"Z 	c #6E9B1F",
"` 	c #6D9A20",
" .	c #52702A",
"..	c #698328",
"+.	c #8FB41E",
"@.	c #99BC2D",
"#.	c #6D6532",
"$.	c #B83843",
"%.	c #D03948",
"&.	c #D13948",
"*.	c #C53448",
"=.	c #8B3842",
"-.	c #666832",
";.	c #4B4A30",
">.	c #4B492F",
",.	c #58612D",
"'.	c #59622D",
").	c #58622D",
"!.	c #56612D",
"~.	c #57612D",
"{.	c #50572E",
"].	c #484130",
"^.	c #61692E",
"/.	c #4E4B30",
"(.	c #4C4A2F",
"_.	c #58602D",
":.	c #4B442F",
"<.	c #69792B",
"[.	c #9CC02B",
"}.	c #7F952A",
"|.	c #885337",
"1.	c #8F283C",
"2.	c #9E2742",
"3.	c #A72449",
"4.	c #7B1E41",
"5.	c #781D42",
"6.	c #942640",
"7.	c #A8333F",
"8.	c #B23C40",
"9.	c #B03A40",
"0.	c #A42F3F",
"a.	c #AA3540",
"b.	c #9F2A3F",
"c.	c #A02A3F",
"d.	c #A9343F",
"e.	c #AC363F",
"f.	c #A42E3F",
"g.	c #955C37",
"h.	c #728E27",
"i.	c #8FB320",
"j.	c #99BF24",
"k.	c #9CC127",
"l.	c #92B720",
"m.	c #809828",
"n.	c #825436",
"o.	c #76223C",
"p.	c #711D40",
"q.	c #731D40",
"r.	c #4B1E36",
"s.	c #761D41",
"t.	c #9A2642",
"u.	c #BA3446",
"v.	c #CC3D4B",
"w.	c #CD3D4B",
"x.	c #CD3C4B",
"y.	c #CC3449",
"z.	c #CC384A",
"A.	c #CC3048",
"B.	c #CC3749",
"C.	c #CC394A",
"D.	c #CC3349",
"E.	c #CC3C4B",
"F.	c #C13D45",
"G.	c #91333A",
"H.	c #52652C",
"I.	c #8DB122",
"J.	c #89AB20",
"K.	c #685C31",
"L.	c #B83443",
"M.	c #BA2C4A",
"N.	c #882042",
"O.	c #361F32",
"P.	c #501E38",
"Q.	c #561E39",
"R.	c #6A2238",
"S.	c #912342",
"T.	c #AA234B",
"U.	c #AB234C",
"V.	c #AE244B",
"W.	c #C52D49",
"X.	c #B9294A",
"Y.	c #BA294A",
"Z.	c #CB3048",
"`.	c #BC2A4A",
" +	c #B6284B",
".+	c #AF254B",
"++	c #A9234B",
"@+	c #8C2440",
"#+	c #5B2235",
"$+	c #91B51E",
"%+	c #88AA20",
"&+	c #6A5831",
"*+	c #C84145",
"=+	c #D43B49",
"-+	c #A12940",
";+	c #491E36",
">+	c #841C45",
",+	c #8C1C48",
"'+	c #AA2845",
")+	c #BA2D45",
"!+	c #BD2D46",
"~+	c #C02E46",
"{+	c #BF2D46",
"]+	c #BF2E46",
"^+	c #C12E46",
"/+	c #BE2D46",
"(+	c #9DC229",
"_+	c #92B81E",
":+	c #8DB121",
"<+	c #6C5C31",
"[+	c #CA4245",
"}+	c #D43C48",
"|+	c #A12A3F",
"1+	c #302232",
"2+	c #4C2A36",
"3+	c #512C37",
"4+	c #612F36",
"5+	c #693035",
"6+	c #682E35",
"7+	c #6B303B",
"8+	c #774650",
"9+	c #794A54",
"0+	c #76444E",
"a+	c #6B303A",
"b+	c #692F35",
"c+	c #692D37",
"d+	c #713D47",
"e+	c #794A53",
"f+	c #6F3944",
"g+	c #532C34",
"h+	c #52682D",
"i+	c #8AAD22",
"j+	c #85A720",
"k+	c #6C5A31",
"l+	c #B33841",
"m+	c #682336",
"n+	c #223C2D",
"o+	c #256A21",
"p+	c #26701E",
"q+	c #216723",
"r+	c #5C7362",
"s+	c #C6C7C7",
"t+	c #D5D5D6",
"u+	c #BFC1C0",
"v+	c #56725B",
"w+	c #246D20",
"x+	c #33653A",
"y+	c #9EA5A0",
"z+	c #D5D5D5",
"A+	c #D2D3D3",
"B+	c #8E9891",
"C+	c #28632F",
"D+	c #3A7222",
"E+	c #658227",
"F+	c #8DB120",
"G+	c #89AD1D",
"H+	c #85A71E",
"I+	c #7C8A2A",
"J+	c #9E563A",
"K+	c #772C37",
"L+	c #26442C",
"M+	c #346F21",
"N+	c #528E19",
"O+	c #569317",
"P+	c #498A1A",
"Q+	c #548654",
"R+	c #AFBCB1",
"S+	c #BDC6BF",
"T+	c #A9B7AA",
"U+	c #54874E",
"V+	c #509018",
"W+	c #43842F",
"X+	c #8CA48D",
"Y+	c #BCC6BE",
"Z+	c #BAC4BC",
"`+	c #7E9C7F",
" @	c #418524",
".@	c #4D831E",
"+@	c #88AA21",
"@@	c #6D8829",
"#@	c #3F4C2E",
"$@	c #346027",
"%@	c #549316",
"&@	c #6E9F1C",
"*@	c #72A11D",
"=@	c #679B1A",
"-@	c #498C18",
";@	c #427C24",
">@	c #407826",
",@	c #427E23",
"'@	c #519019",
")@	c #599518",
"!@	c #45841E",
"~@	c #417926",
"{@	c #45861D",
"]@	c #5D9719",
"^@	c #658F23",
"/@	c #51672B",
"(@	c #89AB21",
"_@	c #90B520",
":@	c #5F772A",
"<@	c #4B6A29",
"[@	c #6F9F1C",
"}@	c #71A11D",
"|@	c #6C9D1E",
"1@	c #61941F",
"2@	c #609121",
"3@	c #609122",
"4@	c #619320",
"5@	c #659620",
"6@	c #629420",
"7@	c #609220",
"8@	c #69991E",
"9@	c #6FA01D",
"0@	c #53692B",
"a@	c #93B81E",
"b@	c #647C29",
"c@	c #4E6C2A",
"d@	c #5F9121",
"e@	c #236828",
"f@	c #1F6628",
"g@	c #256928",
"h@	c #5C8D22",
"i@	c #71A01D",
"j@	c #98BE23",
"k@	c #68812A",
"l@	c #4C6A2A",
"m@	c #6F9E1E",
"n@	c #709E1E",
"o@	c #70A01D",
"p@	c #70A01C",
"q@	c #629919",
"r@	c #55911A",
"s@	c #619221",
"t@	c #609221",
"u@	c #5F9819",
"v@	c #97B92C",
"w@	c #9EC32B",
"x@	c #394C2E",
"y@	c #4F6F29",
"z@	c #507527",
"A@	c #518D19",
"B@	c #689C1B",
"C@	c #659A1A",
"D@	c #669B1A",
"E@	c #519216",
"F@	c #5E9718",
"G@	c #659B1A",
"H@	c #679B1B",
"I@	c #557827",
"J@	c #396228",
"K@	c #496C28",
"L@	c #2E6C22",
"M@	c #4F8A1B",
"N@	c #509115",
"O@	c #5D9718",
"P@	c #669B1B",
"Q@	c #5D8E1F",
"R@	c #537926",
"S@	c #456E26",
"T@	c #729027",
"U@	c #8BAF21",
"V@	c #56692C",
"W@	c #2A6B22",
"X@	c #4E8F17",
"Y@	c #6A9620",
"Z@	c #48801E",
"`@	c #71A01C",
" #	c #679C1B",
".#	c #649A1A",
"+#	c #4A871B",
"@#	c #2C6A22",
"##	c #296125",
"$#	c #29751D",
"%#	c #2D432D",
"&#	c #7A9925",
"*#	c #92B627",
"=#	c #576B2F",
"-#	c #256921",
";#	c #4F9215",
">#	c #72A01D",
",#	c #6F9D1E",
"'#	c #6F9E1D",
")#	c #6A9C1C",
"!#	c #3E8716",
"~#	c #308116",
"{#	c #256523",
"]#	c #288312",
"^#	c #277A18",
"/#	c #22392D",
"(#	c #7D9C25",
"_#	c #8EB31D",
":#	c #A0C52C",
"<#	c #96BA2B",
"[#	c #5D732D",
"}#	c #2E6B22",
"|#	c #4D8E17",
"1#	c #76A420",
"2#	c #77A521",
"3#	c #75A320",
"4#	c #699620",
"5#	c #3C6128",
"6#	c #264C2A",
"7#	c #256822",
"8#	c #277E16",
"9#	c #288510",
"0#	c #2A791A",
"a#	c #344B2C",
"b#	c #80A026",
"c#	c #96BC20",
"d#	c #A0C52B",
"e#	c #95B922",
"f#	c #84A524",
"g#	c #567727",
"h#	c #377022",
"i#	c #4A9014",
"j#	c #529216",
"k#	c #6D9F1C",
"l#	c #76A521",
"m#	c #8FB933",
"n#	c #96C039",
"o#	c #8CB632",
"p#	c #719E20",
"q#	c #5F8625",
"r#	c #394F2D",
"s#	c #256C20",
"t#	c #277C18",
"u#	c #406C26",
"v#	c #779725",
"w#	c #8FB323",
"x#	c #9CC126",
"y#	c #597B26",
"z#	c #256424",
"A#	c #306724",
"B#	c #567728",
"C#	c #608724",
"D#	c #76A421",
"E#	c #8CB732",
"F#	c #9FC83F",
"G#	c #A4CC42",
"H#	c #9DC63E",
"I#	c #8AB531",
"J#	c #729E23",
"K#	c #425A2C",
"L#	c #235029",
"M#	c #256324",
"N#	c #3F6C25",
"O#	c #6D8C26",
"P#	c #91B520",
"Q#	c #95B923",
"R#	c #96BC21",
"S#	c #82A325",
"T#	c #60762E",
"U#	c #586C2E",
"V#	c #2F362F",
"W#	c #24452C",
"X#	c #385A2A",
"Y#	c #587B27",
"Z#	c #7BA725",
"`#	c #9CC53D",
" $	c #76A126",
".$	c #435A2C",
"+$	c #48582D",
"@$	c #576C2B",
"#$	c #8CAF20",
"$$	c #9ABF25",
"%$	c #99BD2C",
"&$	c #8CAD2A",
"*$	c #43502E",
"=$	c #296C21",
"-$	c #538E1A",
";$	c #6E9C1E",
">$	c #7BA825",
",$	c #465D2C",
"'$	c #6F8A27",
")$	c #91B620",
"!$	c #45532E",
"~$	c #2A701F",
"{$	c #569416",
"]$	c #A2CA41",
"^$	c #A1C941",
"/$	c #A3CB41",
"($	c #475E2C",
"_$	c #789527",
":$	c #8CAF1D",
"<$	c #87AA22",
"[$	c #2D7020",
"}$	c #559217",
"|$	c #73A21F",
"1$	c #7FAC28",
"2$	c #82AE2A",
"3$	c #6E8F31",
"4$	c #88B231",
"5$	c #9DC43F",
"6$	c #A1C842",
"7$	c #9BC43C",
"8$	c #47612B",
"9$	c #769427",
"0$	c #97BB25",
"a$	c #7C9B26",
"b$	c #4C7226",
"c$	c #3F7A1F",
"d$	c #509116",
"e$	c #569417",
"f$	c #506E29",
"g$	c #3A4D2D",
"h$	c #57742D",
"i$	c #6C8636",
"j$	c #6F8938",
"k$	c #82A834",
"l$	c #97C13A",
"m$	c #9CC43D",
"n$	c #86B22E",
"o$	c #71A020",
"p$	c #457C20",
"q$	c #557928",
"r$	c #84A32D",
"s$	c #749225",
"t$	c #507726",
"u$	c #2A751C",
"v$	c #3B8A13",
"w$	c #6A9D1B",
"x$	c #49592E",
"y$	c #647D2A",
"z$	c #657E2A",
"A$	c #667F2A",
"B$	c #618129",
"C$	c #719232",
"D$	c #7DA133",
"E$	c #73A11F",
"F$	c #5A9419",
"G$	c #3A6228",
"H$	c #6E882D",
"I$	c #98BD23",
"J$	c #8CB01F",
"K$	c #7B9A29",
"L$	c #527729",
"M$	c #36781E",
"N$	c #5D8822",
"O$	c #638B23",
"P$	c #5D7B29",
"Q$	c #749227",
"R$	c #60782B",
"S$	c #2F492D",
"T$	c #4F7827",
"U$	c #709F1E",
"V$	c #4D6B2A",
"W$	c #668029",
"X$	c #9FC42B",
"Y$	c #92B61F",
"Z$	c #85A42C",
"`$	c #3D4B2F",
" %	c #3A462F",
".%	c #3C4830",
"+%	c #769326",
"@%	c #657F29",
"#%	c #306624",
"$%	c #498B18",
"%%	c #6D9E1C",
"&%	c #719F1E",
"*%	c #657D29",
"=%	c #9AC025",
"-%	c #98BE25",
";%	c #85A723",
">%	c #8BAD29",
",%	c #8DB020",
"'%	c #98BE24",
")%	c #93B52D",
"!%	c #6C8C2A",
"~%	c #3D6D24",
"{%	c #4C8A1A",
"]%	c #69981E",
"^%	c #6C9920",
"/%	c #537129",
"(%	c #6C8728",
"_%	c #97BC23",
":%	c #9EC32C",
"<%	c #8FB227",
"[%	c #72912B",
"}%	c #355A29",
"|%	c #435F2B",
"1%	c #49632B",
"2%	c #6A8627",
"3%	c #83A422",
"4%	c #9CC229",
"5%	c #8AAD23",
"6%	c #76922C",
"7%	c #6C8727",
"8%	c #82A422",
"9%	c #93B91E",
"0%	c #96BB25",
"a%	c #97BC25",
"  . .       . .     + +       . . .       . .     . @     .             + +                   . ",
"        . . . .       + +                         . .     .   . .         + +     +     . .     ",
"      . . .   . .       +     +                         . .   . .       .   +   + +   . . . .   ",
". . . . .     . .     .         . .     .   + +       .       . .       .           . .       . ",
". . . .           .   . . .   . . @     .   + +                 . .                 . .   +   . ",
".       + +       .     . .   . . .     .     +   .   +             .       . . . . . .   + +   ",
"  + + + +     # .     $ %   & * = - $ #     $ ; > , % ; %   ' ' ) & ! =   = = = ~ . . .   + + + ",
"  + { +       % % ] ^ . #   / (   % % %     %   % _ % - # ^ =     ' :   < [ } ^   ] . .     + { ",
"  + +         % # | 1 2 3 4 5 6 ; 7 8 9 0 9 0 0 a b % c d e f 0 0 g h i j % . c ^ % . .       + ",
"          . . . k l m n o p q r s t u v w x y z A B C D E v v w F G H     . > & ; = . .         ",
"  . .     . I - J K L M M N O P Q R S T T T T T U V W X Y Z T T `  ...+.+.. > h ( ;   . . . . . ",
"  . . .     = j @.#.$.%.&.*.=.-.;.>.,.'.).!.~.~.{.].^./.(.,.!.,._.:.<.| . . > < + )     . .     ",
". . . .     = j [.}.|.1.2.3.4.5.6.7.8.8.9.0.a.a.b.b.b.c.d.e.f.9.8.8.g.h.i.. >   j.k.+ +       . ",
"        .       l.m.n.o.p.q.r.s.t.u.v.w.x.y.z.z.A.A.A.A.B.C.D.E.v.F.G.H.I.c >                 . ",
"  . .   .   ' ^ J.K.L.M.N.O.P.Q.R.S.T.U.V.W.X.Y.A.A.A.Z.`. +W..+++@+#+H.I.  $+. > ^ .           ",
". . @ . .   # . %+&+*+=+-+;+>+,+'+)+!+!+!+~+{+]+^+^+^+^+]+/+~+!+!+)+1.H.I.(+< -   _+  . . .     ",
". @ @ .       % :+<+[+}+|+1+2+3+4+5+6+7+8+9+9+9+0+a+b+c+d+9+9+9+e+f+g+h+i+-       c . . . .     ",
". . . .     - c j+k+[+l+m+n+o+p+p+p+q+r+s+t+t+t+u+v+w+x+y+z+t+t+A+B+C+D+E+F+= =   $ . . .       ",
"  . . .     . G+H+I+J+K+L+M+N+O+O+O+P+Q+R+S+S+S+T+U+V+W+X+Y+S+S+Z+`+ @.@v +@. .                 ",
"    . .     c . . F+@@#@$@%@&@*@*@*@=@-@;@>@>@>@,@'@&@)@!@>@>@>@~@{@]@^@/@(@$+-         +     . ",
"            = } . ] _@:@<@[@}@*@*@*@|@1@2@3@3@3@2@4@5@6@7@3@3@3@2@8@9@^@0@I.i i   a@  + +     . ",
"      + +             b@c@*@*@*@*@*@d@e@f@f@f@f@f@f@f@f@f@f@f@f@g@h@i@^@0@I.+ j@; = + + +       ",
".     + + + % ; i + & k@l@m@n@o@p@q@r@s@s@s@s@t@d@d@d@d@d@d@s@s@s@r@u@^@0@v@w@i     + +         ",
".       + + $ % [ h + k@x@y@z@A@=@B@C@*@*@*@*@D@E@E@E@E@E@F@}@*@}@G@H@^@0@v@i   $+a@+       . . ",
"  . .         ^ c l.2 I@J@c@K@L@M@B@*@*@*@*@*@D@N@N@N@N@N@O@i@*@}@P@Q@R@S@T@U@$++.        . .   ",
"  . .     .   # c J V@W@X@n@Y@<@Z@u@}@*@*@*@*@}@p@p@p@p@p@`@p@ #.#+#@###$#%#&#> ]     . . . .   ",
"    .           % *#=#-#;#*@>#,#'#o@*@*@*@*@*@*@*@*@*@*@*@*@)#!#~###{#]#^#/#(#  +._#    .       ",
"        + +   i :#<#[#}#|#&@[@*@*@*@*@*@*@1#2#2#2#2#2#2#2#3#4#5#6#7#8#9#0#a#b#c#^ c         . @ ",
"    + + + + j@w@d#e#f#g#h#i#j#k#*@*@*@*@l#m#n#n#n#n#n#n#n#o#p#q#r#s#9#t#u#v#w#' ' $         . . ",
"  + { +     x#:#      2 y#z#A#z@B#B#C#D#E#F#G#G#G#G#G#G#G#H#I#J#K#L#M#N#O#P#  h w@$     +       ",
"+ + +       Q#R#}   #   S#T#U#V#W#X#Y#Z#H#G#G#G#G#G#G#G#G#G#`# $.$+$@$@@#$. > $$  -       + +   ",
"{ +         # $+-   }   b %$&$*$=$-$;$>$H#G#G#G#G#G#G#G#G#G#`# $,$'$:+)$} . >   ; .       + +   ",
"+           # . ;   +.. # w@i+!$~${$i@>$`#]$^$^$/$G#G#G#G#G#`# $($_$% c#[   } #   $ . .   +     ",
"    .     .   ^ c ^ :$c %   <$+$[$}$[@|$1$2$3$3$4$5$6$]$/$G#7$ $8$9$0$+ &   % c $ $ . .       . ",
". .           % } . _ %   ^ _@a$b$c$d$e$&@*@f$g$h$i$j$k$l$m$n$o$p$q$r$j c#  # . +.  . .       . ",
". .       . =   >       R#  c#] s$t$u$v$w$*@f$x$y$z$A$B$C$D$E$p@F$G$H$# c       ^ _+    .       ",
"  . .   . . =   R#I$  i (   (+i J$K$L$M$N$O$P$Q$l.l.l.R$S$T$U$*@'#V$W$. #                 .     ",
"  . . . . @ = (+j     j@+ X$)   . Y$Z$`$ %.%+%k R#X$R#@%#%$%%%}@&%c@*%. #   X$j@  =     . . .   ",
"      . . . =%+ j     - $$+ -%c . ] _@a ;%>%,%. } '%+ )%!%~%{%]%^%/%(%I .   i w@j@      . . .   ",
"    .       =%+ _%}   -   j@% } . ]   ; %   ^ . c   I$:%<%[%}%|%1%2%3%c } > ] h w@$         . . ",
"            & i   = %   > . =   . ] c#4%  . >   . ]       5%6%(%7%8%. ;     $+;                 ",
"      +       & & 9%0%& a@. $ a%0$& / & a@0%a@  =   =   a@$ - . c     = -   . . $               ",
"  + +         + + + +     . .   + +   + +   . .   + +                   .   . . .     + +     . ",
"+ + +           + + +   . . .           +   . .     + + + +       +           @ . .     + +     ",
"{ + +       .     +   . . . .       .       . . .     + + +       + +       . . . .       + +   ",
"+ +   .                   . .             . . . .       + +   + +       . . . .     . .   + +   ",
"+       .       . . .     . .     +     . .     . .             +   . . . . .         .         ",
"        . .     . .     . .     + +   . . .     .     .     .     . . .       . .     . . .     "};
