/* XPM */
static char * wall_xpm[] = {
"48 48 492 2",
"  	c #95BB1F",
". 	c #8FB31E",
"+ 	c #9FC42C",
"@ 	c #87AA1C",
"# 	c #A4C92D",
"$ 	c #95BA1F",
"% 	c #8FB41E",
"& 	c #94BA1F",
"* 	c #91B51E",
"= 	c #9DC22A",
"- 	c #9DC229",
"; 	c #8BAE21",
"> 	c #8EB221",
", 	c #91B522",
"' 	c #8AAD20",
") 	c #91B61E",
"! 	c #92B71E",
"~ 	c #96BC20",
"{ 	c #97BD22",
"] 	c #96BB20",
"^ 	c #93B91F",
"/ 	c #93B81F",
"( 	c #94B91F",
"_ 	c #9CC128",
": 	c #98BE24",
"< 	c #95BB20",
"[ 	c #98BD23",
"} 	c #7FA520",
"| 	c #345434",
"1 	c #355235",
"2 	c #334634",
"3 	c #5C7432",
"4 	c #90B41E",
"5 	c #96BB23",
"6 	c #9EC42B",
"7 	c #96BC21",
"8 	c #9DC32A",
"9 	c #90B51E",
"0 	c #92B61F",
"a 	c #789E1F",
"b 	c #44741E",
"c 	c #85AE21",
"d 	c #3B7725",
"e 	c #28601E",
"f 	c #296120",
"g 	c #285F1F",
"h 	c #3A5D2F",
"i 	c #7FA127",
"j 	c #485933",
"k 	c #75942A",
"l 	c #92B61E",
"m 	c #98BE23",
"n 	c #92B71F",
"o 	c #83A81E",
"p 	c #29641D",
"q 	c #306F23",
"r 	c #377728",
"s 	c #428233",
"t 	c #367627",
"u 	c #3A792B",
"v 	c #387829",
"w 	c #347127",
"x 	c #376232",
"y 	c #30592B",
"z 	c #31592D",
"A 	c #364A37",
"B 	c #354038",
"C 	c #728F2F",
"D 	c #9EC32B",
"E 	c #96BB22",
"F 	c #88AE1F",
"G 	c #417621",
"H 	c #347526",
"I 	c #458435",
"J 	c #519041",
"K 	c #549444",
"L 	c #529242",
"M 	c #4B8A3B",
"N 	c #3C7D2D",
"O 	c #4B893A",
"P 	c #4E8D3D",
"Q 	c #468237",
"R 	c #38742B",
"S 	c #2E6823",
"T 	c #2B6023",
"U 	c #30582D",
"V 	c #37463A",
"W 	c #67822D",
"X 	c #A1C62C",
"Y 	c #9FC42B",
"Z 	c #6A901D",
"` 	c #29651E",
" .	c #357627",
"..	c #448335",
"+.	c #549343",
"@.	c #589747",
"#.	c #579646",
"$.	c #478637",
"%.	c #4B8B3B",
"&.	c #559444",
"*.	c #4C8C3C",
"=.	c #468536",
"-.	c #357526",
";.	c #306129",
">.	c #335731",
",.	c #305A2B",
"'.	c #374D38",
").	c #363E3A",
"!.	c #8CAF20",
"~.	c #A0C52C",
"{.	c #9ABF24",
"].	c #9AC026",
"^.	c #6A911F",
"/.	c #2C6920",
"(.	c #367628",
"_.	c #3F7F30",
":.	c #488838",
"<.	c #529141",
"[.	c #569545",
"}.	c #4E8D3E",
"|.	c #519040",
"1.	c #539242",
"2.	c #438233",
"3.	c #377828",
"4.	c #3A772C",
"5.	c #366F2B",
"6.	c #357328",
"7.	c #315B2C",
"8.	c #38493B",
"9.	c #4D6034",
"0.	c #8CAF23",
"a.	c #97BC21",
"b.	c #93B721",
"c.	c #8AAE1D",
"d.	c #448336",
"e.	c #468436",
"f.	c #4D8C3D",
"g.	c #478536",
"h.	c #508F3F",
"i.	c #498839",
"j.	c #4E8E3E",
"k.	c #3A7A2B",
"l.	c #367728",
"m.	c #428232",
"n.	c #3E7F2F",
"o.	c #428132",
"p.	c #38762B",
"q.	c #306A26",
"r.	c #2C5F24",
"s.	c #80A521",
"t.	c #85AB1F",
"u.	c #3B7A2D",
"v.	c #539243",
"w.	c #509040",
"x.	c #4B8A3A",
"y.	c #488738",
"z.	c #418132",
"A.	c #4A893A",
"B.	c #49883A",
"C.	c #408031",
"D.	c #2F6E21",
"E.	c #335431",
"F.	c #72902D",
"G.	c #94BA21",
"H.	c #467B26",
"I.	c #4F8E3E",
"J.	c #4B8B3C",
"K.	c #418031",
"L.	c #3D7D2E",
"M.	c #478636",
"N.	c #478738",
"O.	c #3C7C2D",
"P.	c #305B2B",
"Q.	c #364638",
"R.	c #6D8535",
"S.	c #97BD21",
"T.	c #2A671F",
"U.	c #3A792C",
"V.	c #559445",
"W.	c #519141",
"X.	c #377628",
"Y.	c #3B7A2C",
"Z.	c #529142",
"`.	c #2C6124",
" +	c #365137",
".+	c #363D3A",
"++	c #718D2F",
"@+	c #89AD1D",
"#+	c #71961D",
"$+	c #2D6D20",
"%+	c #448334",
"&+	c #508F40",
"*+	c #4A8A3A",
"=+	c #2F6B23",
"-+	c #30592D",
";+	c #364738",
">+	c #586C34",
",+	c #8EB21E",
"'+	c #40701C",
")+	c #39792A",
"!+	c #4F8F3F",
"~+	c #4D8C3C",
"{+	c #3B7B2C",
"]+	c #498939",
"^+	c #478638",
"/+	c #3F8030",
"(+	c #458535",
"_+	c #337425",
":+	c #2A6122",
"<+	c #354B36",
"[+	c #698231",
"}+	c #88AB22",
"|+	c #3E7022",
"1+	c #599848",
"2+	c #428333",
"3+	c #4F8E3F",
"4+	c #367727",
"5+	c #347425",
"6+	c #468637",
"7+	c #39792B",
"8+	c #2D6921",
"9+	c #2D5D27",
"0+	c #314A30",
"a+	c #647E2E",
"b+	c #93B920",
"c+	c #74952B",
"d+	c #2D6424",
"e+	c #3D7C2F",
"f+	c #4D8D3D",
"g+	c #4C8B3B",
"h+	c #438434",
"i+	c #418131",
"j+	c #387929",
"k+	c #3A7B2C",
"l+	c #38792A",
"m+	c #2B651F",
"n+	c #30582C",
"o+	c #2E562A",
"p+	c #334534",
"q+	c #5E7434",
"r+	c #93B820",
"s+	c #42741F",
"t+	c #3F7D31",
"u+	c #498838",
"v+	c #448435",
"w+	c #3F7E2F",
"x+	c #307122",
"y+	c #28631D",
"z+	c #2C6A21",
"A+	c #2A5F22",
"B+	c #37403B",
"C+	c #434F39",
"D+	c #74952C",
"E+	c #2E6624",
"F+	c #468636",
"G+	c #4C8B3C",
"H+	c #569546",
"I+	c #3A7B2B",
"J+	c #2D6C20",
"K+	c #29641E",
"L+	c #2B5B25",
"M+	c #314A31",
"N+	c #6F8A30",
"O+	c #71902C",
"P+	c #2E6A22",
"Q+	c #408131",
"R+	c #438334",
"S+	c #478737",
"T+	c #408030",
"U+	c #327324",
"V+	c #295F20",
"W+	c #335531",
"X+	c #2B5C25",
"Y+	c #345134",
"Z+	c #88AB23",
"`+	c #436232",
" @	c #2D6B21",
".@	c #367528",
"+@	c #4A8939",
"@@	c #397A2A",
"#@	c #2A6021",
"$@	c #2A5D23",
"%@	c #355035",
"&@	c #37443B",
"*@	c #2E5A29",
"=@	c #2F592A",
"-@	c #2D5C28",
";@	c #2C6A20",
">@	c #2F6E22",
",@	c #2C6B1F",
"'@	c #488737",
")@	c #458536",
"!@	c #317223",
"~@	c #29631F",
"{@	c #345433",
"]@	c #37453A",
"^@	c #37433B",
"/@	c #75962B",
"(@	c #2C5C26",
"_@	c #295F1F",
":@	c #27611C",
"<@	c #2A661E",
"[@	c #2F7021",
"}@	c #468537",
"|@	c #3B7C2C",
"1@	c #2E6D22",
"2@	c #28641D",
"3@	c #295E22",
"4@	c #375039",
"5@	c #394C3C",
"6@	c #37443A",
"7@	c #7C9B32",
"8@	c #2C5B26",
"9@	c #2A681E",
"0@	c #29651D",
"a@	c #29661D",
"b@	c #347226",
"c@	c #4A893B",
"d@	c #468535",
"e@	c #3D7B2F",
"f@	c #2C6622",
"g@	c #2A5E22",
"h@	c #31572E",
"i@	c #2D5A28",
"j@	c #364F37",
"k@	c #99BE24",
"l@	c #A3C82D",
"m@	c #7C9933",
"n@	c #344D34",
"o@	c #316827",
"p@	c #2D6D21",
"q@	c #2B6A1E",
"r@	c #2D6C21",
"s@	c #397A2B",
"t@	c #317222",
"u@	c #307021",
"v@	c #346D29",
"w@	c #355632",
"x@	c #345532",
"y@	c #355433",
"z@	c #354637",
"A@	c #363C3A",
"B@	c #9CC129",
"C@	c #74912E",
"D@	c #38483C",
"E@	c #305A2C",
"F@	c #2A671E",
"G@	c #306E23",
"H@	c #317124",
"I@	c #2A691E",
"J@	c #2F6F21",
"K@	c #438333",
"L@	c #458434",
"M@	c #377729",
"N@	c #347326",
"O@	c #2F6D22",
"P@	c #2A6121",
"Q@	c #2A5D22",
"R@	c #374E39",
"S@	c #5B6F35",
"T@	c #8AAC24",
"U@	c #465739",
"V@	c #345133",
"W@	c #2F6028",
"X@	c #2E5C29",
"Y@	c #2A681F",
"Z@	c #2B691F",
"`@	c #327224",
" #	c #337126",
".#	c #316F23",
"+#	c #2E6F20",
"@#	c #2A671D",
"##	c #32572F",
"$#	c #295E21",
"%#	c #325730",
"&#	c #374639",
"*#	c #38463C",
"=#	c #37423A",
"-#	c #345033",
";#	c #2A5D24",
">#	c #2B5A25",
",#	c #31562D",
"'#	c #28621D",
")#	c #2F6F22",
"!#	c #2B6A1F",
"~#	c #29661E",
"{#	c #2A6320",
"]#	c #335631",
"^#	c #375138",
"/#	c #364F38",
"(#	c #364B36",
"_#	c #424F38",
":#	c #77952D",
"<#	c #37413B",
"[#	c #38453B",
"}#	c #344E34",
"|#	c #2C5D26",
"1#	c #2B5E23",
"2#	c #31572F",
"3#	c #305D2B",
"4#	c #357527",
"5#	c #2E6C21",
"6#	c #347426",
"7#	c #306D24",
"8#	c #2F5F29",
"9#	c #2D6026",
"0#	c #38443B",
"a#	c #373E3B",
"b#	c #89AB22",
"c#	c #8AAD22",
"d#	c #37433A",
"e#	c #363F3A",
"f#	c #30572C",
"g#	c #345533",
"h#	c #375139",
"i#	c #2E5E27",
"j#	c #2B5D23",
"k#	c #31572D",
"l#	c #394D3C",
"m#	c #375237",
"n#	c #31562E",
"o#	c #384F3A",
"p#	c #38473C",
"q#	c #698130",
"r#	c #8EB21F",
"s#	c #89AB26",
"t#	c #465338",
"u#	c #394B3C",
"v#	c #384F3B",
"w#	c #355336",
"x#	c #31542F",
"y#	c #38483B",
"z#	c #365037",
"A#	c #2E5A2A",
"B#	c #2D5E27",
"C#	c #2B671F",
"D#	c #28611D",
"E#	c #2C5C25",
"F#	c #365236",
"G#	c #39493C",
"H#	c #38503A",
"I#	c #384D3B",
"J#	c #394A3C",
"K#	c #38463B",
"L#	c #465439",
"M#	c #9BC027",
"N#	c #88AA26",
"O#	c #373F3B",
"P#	c #384C3B",
"Q#	c #37413A",
"R#	c #384A3B",
"S#	c #384E3A",
"T#	c #375038",
"U#	c #2D5B27",
"V#	c #2F5A2A",
"W#	c #384B3A",
"X#	c #335131",
"Y#	c #2E5929",
"Z#	c #345432",
"`#	c #38413C",
" $	c #373D3B",
".$	c #83A429",
"+$	c #9ABE2D",
"@$	c #4B593F",
"#$	c #39453A",
"$$	c #39483C",
"%$	c #37423B",
"&$	c #394E3B",
"*$	c #364C36",
"=$	c #363D3B",
"-$	c #47543E",
";$	c #434F38",
">$	c #82A329",
",$	c #789630",
"'$	c #6E8831",
")$	c #6E8931",
"!$	c #37403A",
"~$	c #38473B",
"{$	c #38453C",
"]$	c #698137",
"^$	c #728E33",
"/$	c #8FB321",
"($	c #8CB01D",
"_$	c #84A525",
":$	c #38433C",
"<$	c #383F3D",
"[$	c #383F3C",
"}$	c #94B921",
"|$	c #9ABF26",
"1$	c #9ABF28",
"2$	c #9BC128",
"3$	c #9BC028",
"  . .       . .     + +       . . .       . .     . @     .             + +                   . ",
"        . . . .       + +                         . .     .   . .         + +     +     . .     ",
"      . . .   . .       +     +                         . .   . .       .   +   + +   . . . .   ",
". . . . .     . .     .         . .     .   + +       .       . .       .           . .       . ",
". . . .           .   . . .   . . @     .   + +                 . .                 . .   +   . ",
".       + +       .     . .   . . .     .     +   .   +             .       . . . . . .   + +   ",
"  + + + +       .             . .               . .         + + +   . .   . . . . . . .   + + + ",
"  + # +       . .     + +           +             . .         + +         . @ . . . . .     + # ",
"  + +         $ % & $ * %   = -   $ % %     ; > , ' ) $ ! $     ~ + {   ]     $ ^ ^ . .       + ",
"          . .     / . ) . (   _ : < [     } | 1 2 3 & ! ! 4 *     5 6 7 8   * . /   . .         ",
"  . .     . @ 4 4 . 9   . !   0 <   a b c d e f g h i j k 4 *   & ! 7 < 7 4 l & / ^   . . . . . ",
"  . . .     . . * * m ~   n & 9 o p q r s s t u v w x y z A B C     ( ^ ^ . ! D E (     . .     ",
". . . .     . ( _ _ = 7   !   F G H I J K L M N O P Q R S T U V W / . . . . ! D D { + +       . ",
"        .     ~ X Y     . Z `  ...+.+.@.@.@.#.$.%.&.&.*.=.-.;.>.,.'.).!.% . !   ~.{.          . ",
"  . .   .   + < ].~ & n ^./.(._.:.<.#.@.@.@.[.}.|.[.1.P 2.3.4.5.6.7.8.9.0.. !   a.b..           ",
". . @ . .       4 & ^ c.d.e.f.<.P g.<.@.#.<.h.i.=.j.h.%.k.l.m.n.o.p.q.r.s.( . 4 4 ^   . . .     ",
". @ @ .       / . .   t.u.}.&.@.v.i.i.<.[.v.&.w.x.y._.n.n.z.A.A.B.C.D.E.F.m G.* $ 9 . . . .     ",
". . . .       / / / t.H...+.@.&.I.$.J.<.#.@.@.#.1.*.K.v L.M.|.1.<.N.O.P.Q.R.S.  ^ . . . .       ",
"  . . .     . & . ( T.U.*.V.+.h.I =.[.@.@.@.@.[.+.W.$.X.Y.%.Z.&.+.Z.2.`. +.+++$                 ",
"    . .     . . @+#+$+ .K.f.I.%+_.x.[.@.#.&.@.+.&+*+$._.s |.<.Z.+.Z.i.=+-+;+>+!.        +     . ",
"            . . ,+'+q )+%+!+~+o.{+]++.@.+.+.J +.A.y.^+/+m.h.[.+.+.j.(+_+:+<+[+/       + +     . ",
"      + +       }+|+Y.f.&.1+&.I.2+K.M Z.h.<.3+f._.$.=.4+5+6+<.Z.*.^+7+8+9+0+a+b+$ & + + +       ",
".     + + +     c+d+e+1.&.&.+.1.$.{+M.x.f+g+h+i+_+j+_.N k+K.y.i.K.l+$+m+n+o+p+q+^ ^ + +         ",
".       + +   $ r+s+t+<.v.<.&+%.i.u+M u+f+v+j+{+H  .o.A.<.*.]+w+x+$+y+z+A+<+B+C+    +       . . ",
"  . .         % D+E+)+F+G+G+i.%+i.w.&.+.H+P (+I+w+A.v.[.+.G+=.I w+_+J+K+L+M+B N+n &       . .   ",
"  . .     .   & O+y P+7+Q+%+%+R+|.#.+.|.1.h.1.S+R+j.#.@.[.|.M I T+N U+V+W+X+Y+).*     . . . .   ",
"    .           Z+`+P. @7+K..@{+I.+.<.+.3+%.I...%.P 1.<.|.+@i+l._+_+@@q #@$@%@&@!       .       ",
"        + +     c+*@=@-@;@>@,@v ^+I.f+|.*.y.*.{+'@I.:.A.<.<.M )@O.U+!@ @~@{@]@^@% ,+        . @ ",
"    + + + +     /@(@_@e :@<@[@t o.%+I %.'@A.%+z.*+}@*++.<.1.+.j.%.|@1@2@3@4@5@6@4 .         . . ",
"  + # +       ].7@8@9@0@a@b@3.!@@@L.@@I $.O.z.)+n.u+~+1.[.Z.w.c@d@e@f@g@h@i@j@.+k@)     +       ",
"+ + +       . l@m@n@o@p@q@r@s@v t@j+)+j+z./+!@u@_+Q+]+h.|.h.*+I 2.v@w@x@i@y@z@A@B@        + +   ",
"# +           _ C@D@E@F@` F@G@H@I@J@4+L.y.A.K@L.{+j+o.]+L@o.M@N@O@P@=@i@Q@R@B+S@$ 9       + +   ",
"+             ) T@U@V@(@y+W@X@Y@Z@,@`@2.$.f+u+o.)+)+v v  #.#[@+#@#A+##$#%#&#*#q+^ . . .   +     ",
"    .     .   % !   =#-#;#>#,#T y+'#)#7+C.T+2.)+3.7+D.!#$+~#9@9@{#]#^#8@/#(#^@_#  ) . .       . ",
". .           $ . :#<#[#}#|#1#U 2#3#;@)#4#5#r 6#l.7#8#9#<@a@:@g@%# +h@2#R@0#a#b#/   . .       . ",
". .       . .   & c#d#e#6@| f#f#g#h#i#!#Z@` T.Z@,@K+j#k#y f#=@x@l#m#n#o#p#A@q#r#*       .       ",
"  . .   . . .   / & s#t#=#u#v#w#x#y#z#A#B#C#:@D#E#*@*@y ]#F#u#G#H#I#J#K#).L#    * (       .     ",
"  . . . . @ .     M#  N#O#[#u#P#]@Q#R#S#T#n+U#V#T#S#W#X#Y#Z#8.d#y#K#`#.+ $.$            . . .   ",
"      . . .   a.+ 7     +$@$#$$$%$J#d#J#u#v#l#&$u#u#K#*$5@u#u#*#=$ $-$;$>$~ Y { ^ ^     . . .   ",
"    .         X + 7   / < - ,$'$)$.+*#a#!$~$R#$$Q#A@[#$${$.+A@]$^$++/$($.   [ 6 k@)         . . ",
"              ~.M#*   $   ]   & * _$a#:$a#.+.+.+A@A@.+.+<$[$S@}$$ 4 . * & 4 n D B@              ",
"      +       _     9 & $ . * $ 9 ) 7 D $ 9 %   4 ! (   &   |$9 . * * ^ & & ) ^                 ",
"  + +         _ _ _ 1$&   . * & 1$_ a.+ 2$^ . ) ^ _ 3$  &   & ^ ^     ^ 9   . . )     + +     . ",
"+ + +           + + +   . . .           +   . .     + + + +       +           @ . .     + +     ",
"# + +       .     +   . . . .       .       . . .     + + +       + +       . . . .       + +   ",
"+ +   .                   . .             . . . .       + +   + +       . . . .     . .   + +   ",
"+       .       . . .     . .     +     . .     . .             +   . . . . .         .         ",
"        . .     . .     . .     + +   . . .     .     .     .     . . .       . .     . . .     "};
